<?xml version="1.0" standalone="no"?>
<!DOCTYPE svg PUBLIC "-//W3C//DTD SVG 20010904//EN"
 "http://www.w3.org/TR/2001/REC-SVG-20010904/DTD/svg10.dtd">
<svg version="1.0" xmlns="http://www.w3.org/2000/svg"
 width="250.000000pt" height="250.000000pt" viewBox="0 0 250.000000 250.000000"
 preserveAspectRatio="xMidYMid meet">
<metadata>
Created by potrace 1.11, written by Peter Selinger 2001-2013
</metadata>
<g transform="translate(0.000000,250.000000) scale(0.100000,-0.100000)"
fill="#000000" stroke="none">
<path d="M0 1250 l0 -1250 1250 0 1250 0 0 1250 0 1250 -1250 0 -1250 0 0
-1250z m900 818 c0 -69 -13 -100 -47 -116 -24 -11 -33 -22 -32 -37 1 -11 -1
-45 -4 -75 -16 -145 -16 -150 10 -176 13 -13 29 -24 35 -24 6 0 9 -3 5 -6 -6
-6 37 -54 48 -54 3 0 4 6 3 13 -2 6 5 11 15 9 9 -2 17 2 17 8 0 6 4 9 10 5 5
-3 7 -13 4 -23 -4 -12 -3 -13 3 -4 14 19 45 4 38 -19 -5 -14 -1 -19 14 -19 25
0 121 -35 147 -54 19 -14 19 -15 -5 -59 l-24 -44 -55 24 c-58 27 -145 34 -165
14 -9 -9 -7 -10 7 -5 16 6 18 4 13 -9 -3 -9 -2 -17 3 -17 6 0 10 -7 10 -15 0
-8 5 -15 11 -15 5 0 7 5 3 12 -4 7 -3 8 4 4 7 -4 12 -14 12 -22 0 -8 -4 -13
-9 -9 -6 3 -9 -3 -8 -14 1 -15 15 -23 62 -36 152 -43 204 -108 174 -217 -23
-89 -117 -137 -244 -125 -62 6 -156 36 -189 60 -17 13 -17 15 4 58 12 24 24
46 26 48 1 1 29 -10 60 -25 76 -37 168 -45 203 -17 34 28 23 65 -25 88 -34 16
-38 16 -46 1 -13 -23 -27 -20 -33 7 -5 17 -17 26 -46 34 -22 6 -42 6 -45 2 -3
-5 1 -9 9 -9 16 0 30 -27 21 -41 -7 -12 -41 -11 -49 1 -3 6 -20 10 -36 10 -46
0 -58 17 -40 57 8 18 18 33 23 33 4 0 0 16 -8 35 -28 67 -11 139 45 193 35 33
38 41 14 38 -10 -2 -23 4 -29 12 -8 12 -15 12 -32 3 -19 -10 -22 -8 -28 15 -4
14 -2 41 4 60 5 19 6 32 1 28 -12 -7 -11 13 0 53 10 33 9 34 -57 96 -20 18
-23 61 -7 88 5 8 -5 3 -21 -11 -15 -14 -22 -17 -15 -7 7 9 11 17 8 17 -3 0 1
17 9 37 20 46 84 105 100 92 8 -6 13 -3 17 12 3 11 10 18 15 15 5 -3 20 6 32
19 30 32 60 33 60 3z m100 -448 c8 -5 11 -10 5 -10 -5 0 -17 5 -25 10 -8 5
-10 10 -5 10 6 0 17 -5 25 -10z m420 -282 c41 -114 78 -204 81 -200 4 4 23 54
44 112 21 58 53 147 71 199 19 52 34 96 34 98 0 7 109 2 114 -5 2 -4 -24 -80
-58 -167 -34 -88 -84 -215 -110 -283 l-48 -123 -51 3 -51 3 -108 270 c-59 149
-107 278 -107 288 -1 16 7 18 57 15 l57 -3 75 -207z m-859 -465 c13 -16 12
-17 -3 -4 -10 7 -18 15 -18 17 0 8 8 3 21 -13z m379 -2 c0 -3 -10 -14 -23 -26
-13 -11 -16 -15 -8 -10 12 8 12 7 3 -12 -7 -12 -17 -25 -24 -29 -7 -4 -8 -3
-4 4 4 7 2 12 -3 12 -6 0 -11 -4 -11 -10 0 -5 -14 -17 -31 -25 l-30 -16 12 23
c19 38 82 97 101 95 10 -1 18 -4 18 -6z m-96 -33 c-3 -7 -21 -25 -39 -41 -26
-21 -34 -24 -38 -13 -5 12 35 45 80 65 1 1 0 -5 -3 -11z m30 -82 c-3 -8 -1
-17 5 -21 7 -3 11 3 12 17 0 22 1 22 8 3 10 -24 1 -31 -59 -40 l-45 -6 34 30
c36 33 54 40 45 17z m166 -41 c0 -8 5 -15 11 -15 7 0 5 -10 -5 -25 -19 -29
-20 -39 -3 -29 9 6 9 4 -1 -8 -10 -13 -8 -16 17 -21 28 -6 29 -8 18 -31 -15
-31 -37 -43 -30 -15 3 10 1 19 -4 19 -5 0 -9 -10 -10 -22 -2 -20 -18 -38 -37
-38 -5 0 -1 9 8 19 17 19 17 19 -3 14 -13 -3 -21 -1 -21 6 0 7 -5 9 -12 5 -7
-4 -4 3 7 15 l20 23 -38 -7 c-24 -5 -37 -3 -37 4 0 17 -28 1 -33 -20 -3 -10
-11 -19 -19 -19 -8 0 -9 3 -3 8 6 4 20 26 31 48 21 41 21 41 2 36 -16 -4 -19
-1 -16 14 2 12 12 19 28 20 14 0 32 4 40 9 9 5 15 4 18 -3 2 -8 12 -6 29 8 31
24 43 25 43 5z m-185 -175 c3 -6 -1 -7 -9 -4 -18 7 -21 14 -7 14 6 0 13 -4 16
-10z"/>
<path d="M870 2040 c0 -5 5 -10 10 -10 6 0 10 5 10 10 0 6 -4 10 -10 10 -5 0
-10 -4 -10 -10z"/>
<path d="M770 1910 c0 -5 5 -10 11 -10 5 0 7 5 4 10 -3 6 -8 10 -11 10 -2 0
-4 -4 -4 -10z"/>
<path d="M695 1830 c-3 -5 -1 -10 4 -10 6 0 11 5 11 10 0 6 -2 10 -4 10 -3 0
-8 -4 -11 -10z"/>
<path d="M768 1683 c7 -3 16 -2 19 1 4 3 -2 6 -13 5 -11 0 -14 -3 -6 -6z"/>
<path d="M945 680 c-3 -5 -1 -10 4 -10 6 0 11 5 11 10 0 6 -2 10 -4 10 -3 0
-8 -4 -11 -10z"/>
</g>
</svg>
